<?xml version="1.0" encoding="UTF-8" standalone="no"?>
<!-- Created with Inkscape (http://www.inkscape.org/) -->

<svg
   xmlns:dc="http://purl.org/dc/elements/1.1/"
   xmlns:cc="http://creativecommons.org/ns#"
   xmlns:rdf="http://www.w3.org/1999/02/22-rdf-syntax-ns#"
   xmlns:svg="http://www.w3.org/2000/svg"
   xmlns="http://www.w3.org/2000/svg"
   xmlns:sodipodi="http://sodipodi.sourceforge.net/DTD/sodipodi-0.dtd"
   xmlns:inkscape="http://www.inkscape.org/namespaces/inkscape"
   width="402.17209"
   height="89.763435"
   id="svg2"
   version="1.1"
   inkscape:version="0.47pre4 r22446"
   sodipodi:docname="minisip_logo.svg">
  <defs
     id="defs4">
    <inkscape:perspective
       sodipodi:type="inkscape:persp3d"
       inkscape:vp_x="0 : 526.18109 : 1"
       inkscape:vp_y="0 : 1000 : 0"
       inkscape:vp_z="744.09448 : 526.18109 : 1"
       inkscape:persp3d-origin="372.04724 : 350.78739 : 1"
       id="perspective10" />
  </defs>
  <sodipodi:namedview
     id="base"
     pagecolor="#ffffff"
     bordercolor="#666666"
     borderopacity="1.0"
     inkscape:pageopacity="0.0"
     inkscape:pageshadow="2"
     inkscape:zoom="2.0737391"
     inkscape:cx="201.08604"
     inkscape:cy="44.881718"
     inkscape:document-units="px"
     inkscape:current-layer="layer1"
     showgrid="false"
     inkscape:snap-page="true"
     inkscape:window-width="935"
     inkscape:window-height="651"
     inkscape:window-x="12"
     inkscape:window-y="25"
     inkscape:window-maximized="0"
     showguides="true"
     inkscape:guide-bbox="true">
    <sodipodi:guide
       orientation="1,0"
       position="290.00639,72.000048"
       id="guide3603" />
    <sodipodi:guide
       orientation="0,1"
       position="290.00639,72.000048"
       id="guide3605" />
    <sodipodi:guide
       orientation="0,1"
       position="323.88876,41.907149"
       id="guide3607" />
    <sodipodi:guide
       orientation="1,0"
       position="349.07763,55.950502"
       id="guide3609" />
    <sodipodi:guide
       orientation="0,1"
       position="325.44913,24.074319"
       id="guide3611" />
  </sodipodi:namedview>
  <metadata
     id="metadata7">
    <rdf:RDF>
      <cc:Work
         rdf:about="">
        <dc:format>image/svg+xml</dc:format>
        <dc:type
           rdf:resource="http://purl.org/dc/dcmitype/StillImage" />
        <dc:title></dc:title>
      </cc:Work>
    </rdf:RDF>
  </metadata>
  <g
     inkscape:label="Layer 1"
     inkscape:groupmode="layer"
     id="layer1"
     transform="translate(-174.39457,-395.43905)">
    <text
       xml:space="preserve"
       style="font-size:120.2412262px;font-style:normal;font-variant:normal;font-weight:normal;font-stretch:normal;fill:#333333;fill-opacity:1;stroke:none;font-family:Bitstream Vera Sans Mono;-inkscape-font-specification:Bitstream Vera Sans Mono"
       x="169.94565"
       y="485.20245"
       id="text2816"><tspan
         sodipodi:role="line"
         id="tspan2818"
         x="169.94565"
         y="485.20245"><tspan
           style="font-style:normal;font-variant:normal;font-weight:normal;font-stretch:normal;fill:#333333;font-family:'Lobster 1.3';-inkscape-font-specification:'Lobster 1.3,'"
           id="tspan2820">Mini</tspan><tspan
           style="font-style:normal;font-variant:normal;font-weight:normal;font-stretch:normal;fill:#333333;font-family:Akashi;-inkscape-font-specification:Akashi"
           id="tspan2822" /></tspan></text>
    <path
       style="font-size:121.63681792999999232px;font-style:normal;font-variant:normal;font-weight:normal;font-stretch:normal;fill:#ff8d00;fill-opacity:1;stroke:none;font-family:Bitstream Vera Sans Mono;-inkscape-font-specification:Bitstream Vera Sans Mono"
       d="m 464.49261,395.43904 c -20.13806,0.0309 -40.2781,-0.062 -60.41491,0.047 -7.19757,-0.34079 -11.3859,7.04209 -10.36869,13.61418 0.10444,10.34794 -0.22035,20.71472 0.18433,31.04959 0.34856,6.96717 7.64871,9.91217 13.636,9.11144 13.08913,0 26.17825,0 39.26737,0 0,5.98025 0,11.96049 0,17.94074 -17.6959,0.0199 -35.3918,0.0399 -53.0877,0.0598 0,5.96031 0,11.92062 0,17.88093 20.13805,-0.0307 40.27807,0.0617 60.4149,-0.0467 7.17389,0.34771 11.39072,-6.9898 10.3687,-13.55461 -0.10446,-10.34795 0.22037,-20.71471 -0.18436,-31.04957 -0.34863,-6.9671 -7.64869,-9.91217 -13.63597,-9.11148 -13.08913,0 -26.17825,0 -39.26737,0 0,-6.00017 0,-12.00035 0,-18.00052 15.74934,0 37.2467,-0.1774 52.99605,-0.1774 0,0 0.0917,-17.7634 0.0917,-17.7634 l 0,0 -5e-5,0 z m 11.79727,0.0598 c 0,29.90121 0,59.80242 0,89.70363 5.89863,0 11.79727,0 17.6959,0 0,-29.90121 0,-59.80242 0,-89.70363 -5.89863,0 -11.79727,0 -17.6959,0 z m 29.49316,11.96048 c 0,25.91439 0,51.82877 0,77.74315 5.89864,0 11.79728,0 17.69591,0 0,-23.92097 0,-47.84194 0,-71.7629 11.79726,0 23.59454,0 35.3918,0 0,9.96707 0,19.93414 0,29.90121 -7.86484,0 -27.5337,-0.0454 -35.39855,-0.0454 0,0 0,17.83279 0,17.83279 12.71678,-0.11268 31.35832,0.3863 44.06214,-0.0335 6.88171,-0.34181 9.83124,-7.73606 9.03232,-13.82467 -0.11431,-14.20231 0.23411,-28.42472 -0.18436,-42.61385 -0.33721,-6.97685 -7.63046,-9.96724 -13.63599,-9.15727 -15.97471,0.11599 -31.96927,-0.23749 -47.93098,0.18691 -5.97589,0.39827 -9.43911,6.06816 -9.03229,11.77357 l 0,-4e-5 z"
       id="text2824"
       sodipodi:nodetypes="ccccccccccccccccccccccccccccccccccccccc" />
    <path
       sodipodi:nodetypes="ccccccccccccccccccccccccccccccccccccccc"
       id="path3613"
       d="m 464.49261,395.43904 c -20.13806,0.0309 -40.2781,-0.062 -60.41491,0.047 -7.19757,-0.34079 -11.3859,7.04209 -10.36869,13.61418 0.10444,10.34794 -0.22035,20.71472 0.18433,31.04959 0.34856,6.96717 7.64871,9.91217 13.636,9.11144 13.08913,0 26.17825,0 39.26737,0 0,5.98025 0,11.96049 0,17.94074 -17.6959,0.0199 -35.3918,0.0399 -53.0877,0.0598 0,5.96031 0,11.92062 0,17.88093 20.13805,-0.0307 40.27807,0.0617 60.4149,-0.0467 7.17389,0.34771 11.39072,-6.9898 10.3687,-13.55461 -0.10446,-10.34795 0.22037,-20.71471 -0.18436,-31.04957 -0.34863,-6.9671 -7.64869,-9.91217 -13.63597,-9.11148 -13.08913,0 -26.17825,0 -39.26737,0 0,-6.00017 0,-12.00035 0,-18.00052 15.74934,0 37.2467,-0.1774 52.99605,-0.1774 0,0 0.0917,-17.7634 0.0917,-17.7634 l 0,0 -5e-5,0 z m 11.79727,0.0598 c 0,29.90121 0,59.80242 0,89.70363 5.89863,0 11.79727,0 17.6959,0 0,-29.90121 0,-59.80242 0,-89.70363 -5.89863,0 -11.79727,0 -17.6959,0 z m 29.49316,11.96048 c 0,25.91439 0,51.82877 0,77.74315 5.89864,0 11.79728,0 17.69591,0 0,-23.92097 0,-47.84194 0,-71.7629 11.79726,0 23.59454,0 35.3918,0 0,9.96707 0,19.93414 0,29.90121 -7.86484,0 -27.5337,-0.0454 -35.39855,-0.0454 0,0 0,17.83279 0,17.83279 12.71678,-0.11268 31.35832,0.3863 44.06214,-0.0335 6.88171,-0.34181 9.83124,-7.73606 9.03232,-13.82467 -0.11431,-14.20231 0.23411,-28.42472 -0.18436,-42.61385 -0.33721,-6.97685 -7.63046,-9.96724 -13.63599,-9.15727 -15.97471,0.11599 -31.96927,-0.23749 -47.93098,0.18691 -5.97589,0.39827 -9.43911,6.06816 -9.03229,11.77357 l 0,-4e-5 z"
       style="font-size:121.63681792999999232px;font-style:normal;font-variant:normal;font-weight:normal;font-stretch:normal;fill:#ff8d00;fill-opacity:1;stroke:none;font-family:Bitstream Vera Sans Mono;-inkscape-font-specification:Bitstream Vera Sans Mono" />
  </g>
</svg>
